<svg xmlns="http://www.w3.org/2000/svg" xmlns:xlink="http://www.w3.org/1999/xlink"><symbol id="icon-arrow"><path fill-rule="evenodd" clip-rule="evenodd" d="M10 9.4l4.6 4.6-4.6 4.6 1.4 1.4 6-6-6-6L10 9.4z"/></symbol><symbol id="icon-email"><path d="M24.227 3H1.773C.768 3 0 3.765 0 4.765v16.47C0 22.235.768 23 1.773 23h22.454C25.232 23 26 22.235 26 21.235V4.765c0-1-.768-1.765-1.773-1.765zm0 17l-4.668-4.647a.86.86 0 00-1.24 0 .85.85 0 000 1.235l4.667 4.647H3.014l4.668-4.647a.85.85 0 000-1.235.86.86 0 00-1.241 0L1.773 20V8.706l10.636 8a.955.955 0 00.532.176.955.955 0 00.532-.176l10.754-8V20zm0-15.235V6.47l-11.286 8.352L1.773 6.471V4.765h22.454z"/></symbol><symbol id="icon-phone"><path d="M5.456 7.742c-.084-1.198.181-2.378.885-3.327.61-.861 1.404-1.331 2.361-1.606.807-.239 1.335.054 1.568.95.332 1.34.806 2.681.978 4.092.055.622-.347 1.5-.782 1.952-1.09 1.074-.864 1.855-.036 3.479.257.524.664 1.43 1.458 2.628.828 1.207 1.266 1.855 2.329 1.305 1.18-.594 2.041-.212 2.932.747.604.693 1.268 1.288 1.872 1.98.873 1.03.834 1.74.151 2.467-1.229 1.34-3.258 1.782-4.768.885-.834-.488-1.664-1.128-2.325-1.873-2.914-3.32-5.016-7.182-6.282-11.54a10.989 10.989 0 01-.34-2.139z"/></symbol><symbol id="icon-triangle"><path fill-rule="evenodd" clip-rule="evenodd" d="M10 4l13 9.1-13 9.1V4z" fill="#070707"/></symbol></svg>